<svg xmlns="http://www.w3.org/2000/svg" width="886.958" height="658.027" viewBox="0 0 886.958 658.027">
  <g id="Grupo_2" data-name="Grupo 2" transform="translate(-566.001 -134)">
    <path id="Sustracción_1" data-name="Sustracción 1" d="M962.958,246H78.344a156.606,156.606,0,0,1,.806-58.238,154.155,154.155,0,0,1,23.322-55.424,155.453,155.453,0,0,1,68.2-56.157,154.221,154.221,0,0,1,29.1-9.032,156.651,156.651,0,0,1,54.563-1.4A113.057,113.057,0,0,1,418.765,18.358,154.3,154.3,0,0,1,492,0a156.218,156.218,0,0,1,30.616,3.023A154.1,154.1,0,0,1,577.13,25.449a156.08,156.08,0,0,1,22.728,18.234,154.326,154.326,0,0,1,28.552-8.664,156.09,156.09,0,0,1,78.64,4.574,155.4,155.4,0,0,1,97.75,94.677c3.052-.179,6.148-.269,9.2-.269A155.1,155.1,0,0,1,962.958,246Z" transform="translate(490 546)" fill="#ffe780"/>
    <g id="undraw_Hang" transform="translate(655 134.027)">
      <path id="Trazado_1" data-name="Trazado 1" d="M992.886,299.752c0,3.934-.126,7.851-.378,11.722a178.03,178.03,0,0,1-16.663,64.546c-.078.173-.158.347-.236.5-.44.944-.9,1.873-1.369,2.8a179.012,179.012,0,0,1-156.093,99.21l1.778,101.713L842.976,568.1l4.123,7.837-27,14.209,3.132,179.413.157,9.441H805.715l.174-9.441,5.365-291.007A178.275,178.275,0,0,1,685.1,423.668c-1.133-1.165-2.234-2.36-3.335-3.557-.048-.047-.079-.095-.111-.126a178.929,178.929,0,0,1-32.588-50.416c.173.205.362.378.535.582a178.87,178.87,0,0,1,84.813-230.505c.613-.3,1.258-.6,1.872-.913a179.013,179.013,0,0,1,231.921,70.415c1.086,1.825,2.141,3.7,3.147,5.57a177.9,177.9,0,0,1,21.526,85.033Z" transform="translate(-207.114 -121)" fill="#cacaca"/>
      <ellipse id="Elipse_1" data-name="Elipse 1" cx="110.5" cy="23" rx="110.5" ry="23" transform="translate(209.114 451)" fill="#cacaca"/>
      <rect id="Rectángulo_1" data-name="Rectángulo 1" width="13" height="172" transform="translate(313.114 485.283)" fill="#cacaca"/>
      <path id="Trazado_4" data-name="Trazado 4" d="M602.715,584.118a11,11,0,0,1,15.874-4.191,10.6,10.6,0,0,1,1.163.9l47.724-11.3,3.519-11.68,19.038,3.125-3.891,19.619a11.149,11.149,0,0,1-9.906,8.891l-53.991,4.756a10.511,10.511,0,0,1-.544.933,11,11,0,0,1-16.248,2.363,10.708,10.708,0,0,1-.981-.927A11.036,11.036,0,0,1,602.715,584.118Z" transform="translate(-207.114 -121)" fill="#ffb8b8"/>
      <path id="Trazado_5" data-name="Trazado 5" d="M706.2,667.2H658.187c0,1.38-49.48,2.5-49.48,2.5a12.866,12.866,0,0,0-2.11,2,12.41,12.41,0,0,0-2.9,8v2a12.5,12.5,0,0,0,12.5,12.5h90a12.511,12.511,0,0,0,12.5-12.5v-2A12.517,12.517,0,0,0,706.2,667.2Z" transform="translate(-207.114 -121)" fill="#cacaca"/>
      <rect id="Rectángulo_2" data-name="Rectángulo 2" width="13" height="84" transform="translate(446.858 572.701)" fill="#cacaca"/>
      <path id="Trazado_6" data-name="Trazado 6" d="M616.973,777.244c0,1.4,19.7.543,44,.543s44,.861,44-.543-19.7-12.543-44-12.543S616.973,775.84,616.973,777.244Z" transform="translate(-207.114 -121)" fill="#cacaca"/>
      <path id="Trazado_7" data-name="Trazado 7" d="M422.594,645.4H410.335L404.5,613.6H422.6Z" fill="#ffb8b8"/>
      <path id="Trazado_8" data-name="Trazado 8" d="M632.835,778.283H593.3v-.5A15.386,15.386,0,0,1,608.691,762.4h24.145Z" transform="translate(-207.114 -121)" fill="#2f2e41"/>
      <path id="Trazado_9" data-name="Trazado 9" d="M611.372,746.681l-24.441-54.808a20.086,20.086,0,0,1,8.819-25.784l53.013-28.428,24.191-2.058,22.315-2.028.161.272c.206.348,5,8.635,1.76,17.722-2.46,6.893-8.859,12.276-19.019,16-23.714,8.7-51.109,16.127-61.786,18.918a3.451,3.451,0,0,0-2.211,1.76,3.5,3.5,0,0,0-.2,2.8l22.706,51.015a4.5,4.5,0,0,1-3.809,6.029l-16.967,1.235q-.216.021-.43.021a4.5,4.5,0,0,1-4.106-2.667Z" transform="translate(-207.114 -121)" fill="#2f2e41"/>
      <path id="Trazado_10" data-name="Trazado 10" d="M430.594,645.4H418.335L412.5,613.6H430.6Z" fill="#ffb8b8"/>
      <path id="Trazado_11" data-name="Trazado 11" d="M640.835,778.283H601.3v-.5A15.386,15.386,0,0,1,616.691,762.4h24.145Z" transform="translate(-207.114 -121)" fill="#2f2e41"/>
      <path id="Trazado_12" data-name="Trazado 12" d="M620.372,749.681l-24.441-54.808a20.086,20.086,0,0,1,8.819-25.784l53.013-28.428,24.191-2.058,17.478-1.516,0-.24c.206.348,5,8.635,1.76,17.722-2.46,6.893-3.859,12.276-14.019,16-23.714,8.7-51.109,16.127-61.786,18.918a3.451,3.451,0,0,0-2.211,1.76,3.5,3.5,0,0,0-.2,2.8l22.706,51.015a4.5,4.5,0,0,1-3.809,6.029l-16.967,1.235q-.216.021-.43.021a4.5,4.5,0,0,1-4.106-2.667Z" transform="translate(-207.114 -121)" fill="#2f2e41"/>
      <path id="Trazado_13" data-name="Trazado 13" d="M666.432,638.088c-1.172-.829-18,8-21,1,14-35,4.353-50.114,12.928-70.185a24.991,24.991,0,0,1,16.567-14.18l22.25-1.123.115.056a26.005,26.005,0,0,1,14.219,27.588c-.079,21.843-13.148,38.5-8.579,54.346a5.122,5.122,0,0,1-.484,3.983,4.884,4.884,0,0,1-3.116,2.309l-29.378-3.919a4.964,4.964,0,0,1-4.017-.777Z" transform="translate(-207.114 -121)" fill="#6c63ff"/>
      <circle id="Elipse_2" data-name="Elipse 2" cx="24.561" cy="24.561" r="24.561" transform="translate(458.076 375.168)" fill="#ffb8b8"/>
      <path id="Trazado_14" data-name="Trazado 14" d="M697.575,543.273c-1.3.571-3.977-9.827-2.78-11.907,1.78-3.093,1.675-3.071,2.857-5.117s1.446-4.847-.084-6.648-5.072-1.562-5.77.7c.449-4.288-3.792-7.735-7.993-8.7s-8.632-.367-12.857-1.229c-4.9-1-10-5.11-8.047-10.5a7.592,7.592,0,0,1,1.481-2.434c2.26-2.541,5.421-3.626,8.512-4.675,6.43-2.182,13.036-4.392,19.822-4.151a28.8,28.8,0,0,1,25.446,18.609,26.149,26.149,0,0,1,1.083,4.025c2.329,12.524-4.944,24.878-16.756,29.647Z" transform="translate(-207.114 -121)" fill="#2f2e41"/>
      <path id="Trazado_15" data-name="Trazado 15" d="M334.782,659.959h37.53c0,1.608,41.026,2.913,41.026,2.913A14.986,14.986,0,0,1,415.8,665.2a14.462,14.462,0,0,1,3.38,9.322v2.331a14.571,14.571,0,0,1-14.566,14.566H334.782a14.579,14.579,0,0,1-14.566-14.566v-2.331a14.586,14.586,0,0,1,14.566-14.566Z" transform="translate(-207.114 -121)" fill="#cacaca"/>
      <path id="Trazado_40" data-name="Trazado 40" d="M0,0H15.149V87.439H0Z" transform="translate(154.96 569.843)" fill="#cacaca"/>
      <path id="Trazado_16" data-name="Trazado 16" d="M421.426,776.663c0,1.637-22.956.633-51.273.633s-51.273,1-51.273-.633,22.956-14.617,51.273-14.617S421.426,775.027,421.426,776.663Z" transform="translate(-207.114 -121)" fill="#cacaca"/>
      <path id="Trazado_17" data-name="Trazado 17" d="M224.488,645.672h11.274l5.364-43.487h-16.64Z" fill="#9f616a"/>
      <path id="Trazado_18" data-name="Trazado 18" d="M428.727,762.991h22.2a14.15,14.15,0,0,1,14.15,14.149v.461H428.728Z" transform="translate(-207.114 -121)" fill="#2f2e41"/>
      <path id="Trazado_19" data-name="Trazado 19" d="M257.81,645.672h11.275l5.363-43.487h-16.64Z" fill="#9f616a"/>
      <path id="Trazado_20" data-name="Trazado 20" d="M462.049,762.991h22.2a14.15,14.15,0,0,1,14.15,14.149v.461H462.05Z" transform="translate(-207.114 -121)" fill="#2f2e41"/>
      <path id="Trazado_21" data-name="Trazado 21" d="M425.685,629.041a8.572,8.572,0,0,0-11.054-7.112l-12.548-15.042-11,5.4L409.1,633.276a8.618,8.618,0,0,0,16.584-4.236Z" transform="translate(-207.114 -121)" fill="#9f616a"/>
      <path id="Trazado_22" data-name="Trazado 22" d="M176.375,418.822l7.36,3.021,1.782,20.791,19.713,53.914-16.743,5.573-18.6-36.165Z" fill="#e4e4e4"/>
      <circle id="Elipse_3" data-name="Elipse 3" cx="19.603" cy="19.603" r="19.603" transform="translate(137.66 355.581)" fill="#9f616a"/>
      <path id="Trazado_23" data-name="Trazado 23" d="M361.362,487.062s.86-11.909,11.473-7.053,9.92-8.528,6.713-10.893-3.106-2.95-14.835-1.368-34.5,4.263-27.139,27.848,18.207,17.445,18.207,17.445-10.028-21.151-4.1-17.107l5.93,4.043,3.13-.663Z" transform="translate(-207.114 -121)" fill="#2f2e41"/>
      <path id="Trazado_24" data-name="Trazado 24" d="M332.2,631.023s-6.577,34.78,18.448,39.209,61.151,7.542,61.151,7.542l16.223,75.689,21.8-1.946s-2.9-91.113-10.027-98.241-41.022-27.989-41.022-27.989Z" transform="translate(-207.114 -121)" fill="#2f2e41"/>
      <path id="Trazado_25" data-name="Trazado 25" d="M381.082,616.447l10.945,10.98s79.03,12.73,82.079,30.983c4.6,27.558,10.04,87.486,10.04,87.486l-23.761-1.782-9.318-68.121-38.018-8.648L369.8,643.772Z" transform="translate(-207.114 -121)" fill="#2f2e41"/>
      <path id="Trazado_26" data-name="Trazado 26" d="M380.473,532.248l-6.358-8.429-20.617-.337h0A40.164,40.164,0,0,0,332.2,558.937v53.336s.293,7.1-1.259,23.4c-1.339,14.063,73.5-8.241,73.5-8.241l-9.715-79.151S395.511,535.668,380.473,532.248Z" transform="translate(-207.114 -121)" fill="#e4e4e4"/>
      <path id="Trazado_28" data-name="Trazado 28" d="M593.327,524.435h0a81.638,81.638,0,0,1-.685-17.7l.685-9.775h0c-3.775,7.511-2.922,17.4,0,27.471Z" transform="translate(-207.114 -121)" fill="#e5e5e5"/>
      <path id="Trazado_29" data-name="Trazado 29" d="M596.271,526.07h0a60,60,0,0,1-.33-10.533l.33-5.818h0C594.455,514.189,594.865,520.073,596.271,526.07Z" transform="translate(-207.114 -121)" fill="#e5e5e5"/>
      <path id="Trazado_30" data-name="Trazado 30" d="M609.354,533.265v3.27a.986.986,0,0,1-.981.981h-1.635a.326.326,0,0,0-.327.327V564.66a.986.986,0,0,1-.981.981H585.48a.982.982,0,0,1-.981-.981V537.844a.328.328,0,0,0-.327-.327H582.21a.982.982,0,0,1-.981-.981v-3.27a.98.98,0,0,1,.981-.981h26.163A.984.984,0,0,1,609.354,533.265Z" transform="translate(-207.114 -121)" fill="#3f3d56"/>
      <rect id="Rectángulo_4" data-name="Rectángulo 4" width="21.911" height="0.981" transform="translate(377.414 417.204)" fill="#6c63ff"/>
      <path id="Trazado_31" data-name="Trazado 31" d="M606.41,552.641a28.159,28.159,0,0,1-22.238,0v-6.912a34.924,34.924,0,0,1,22.238,0Z" transform="translate(-207.114 -121)" fill="#6c63ff"/>
      <path id="Trazado_32" data-name="Trazado 32" d="M458.327,546.435h0a81.636,81.636,0,0,1-.685-17.7l.685-9.775h0c-3.775,7.511-2.922,17.4,0,27.471Z" transform="translate(-207.114 -121)" fill="#e5e5e5"/>
      <path id="Trazado_33" data-name="Trazado 33" d="M461.271,548.07h0a60.01,60.01,0,0,1-.33-10.533l.33-5.818h0C459.455,536.189,459.865,542.073,461.271,548.07Z" transform="translate(-207.114 -121)" fill="#e5e5e5"/>
      <path id="Trazado_34" data-name="Trazado 34" d="M474.354,555.265v3.27a.986.986,0,0,1-.981.981h-1.635a.326.326,0,0,0-.327.327V586.66a.986.986,0,0,1-.981.981H450.48a.982.982,0,0,1-.981-.981V559.844a.328.328,0,0,0-.327-.327H447.21a.982.982,0,0,1-.981-.981v-3.27a.98.98,0,0,1,.981-.981h26.163a.984.984,0,0,1,.982.981Z" transform="translate(-207.114 -121)" fill="#3f3d56"/>
      <rect id="Rectángulo_5" data-name="Rectángulo 5" width="21.911" height="0.981" transform="translate(242.414 439.204)" fill="#6c63ff"/>
      <path id="Trazado_35" data-name="Trazado 35" d="M471.41,574.641a28.16,28.16,0,0,1-22.238,0v-6.912a34.924,34.924,0,0,1,22.238,0Z" transform="translate(-207.114 -121)" fill="#6c63ff"/>
      <path id="Trazado_36" data-name="Trazado 36" d="M643.36,603.959l-42.674-33.666a10.513,10.513,0,0,1-1.036.306,11.027,11.027,0,0,1-8.818-1.691,11,11,0,1,1,17.009-11.534,10.573,10.573,0,0,1,.229,1.452l42.482,24.508,10.572-6.086,11.711,15.332-16.414,11.7a10.942,10.942,0,0,1-13.06-.319Z" transform="translate(-207.114 -121)" fill="#ffb8b8"/>
      <path id="Trazado_37" data-name="Trazado 37" d="M678.041,597.353,653.692,580.8l11.443-16.207a11.168,11.168,0,0,1,13.929-3.64h0a11.168,11.168,0,0,1,5.894,13.283Z" transform="translate(-207.114 -121)" fill="#6c63ff"/>
      <path id="Trazado_38" data-name="Trazado 38" d="M458.991,565.67a8.572,8.572,0,0,0-12.154,5l-19.515,1.7-1.861,12.11,27.525-2.784a8.618,8.618,0,0,0,6-16.029Z" transform="translate(-207.114 -121)" fill="#9f616a"/>
      <path id="Trazado_39" data-name="Trazado 39" d="M342.421,547.907l-5.52,4.118s-3.063,7.412,2.939,17.252,44.04,30.583,44.04,30.583l61.584-15.727-8.775-17.217-44.874,1.255S366.441,536.541,342.421,547.907Z" transform="translate(-207.114 -121)" fill="#e4e4e4"/>
    </g>
  </g>
</svg>
